<svg width="377" height="120" viewBox="0 0 377 120" fill="none" xmlns="http://www.w3.org/2000/svg">
<path d="M49.7109 16.6758V36.8555H59.8008C61.1836 36.8555 62.4844 36.5977 63.7031 36.082C64.9219 35.543 65.9883 34.8164 66.9023 33.9023C67.8164 32.9883 68.5312 31.9219 69.0469 30.7031C69.5859 29.4609 69.8555 28.1484 69.8555 26.7656C69.8555 25.3828 69.5859 24.082 69.0469 22.8633C68.5312 21.6211 67.8164 20.543 66.9023 19.6289C65.9883 18.7148 64.9219 18 63.7031 17.4844C62.4844 16.9453 61.1836 16.6758 59.8008 16.6758H49.7109ZM49.7109 57H39.6211V6.58594H59.8008C61.6523 6.58594 63.4336 6.83203 65.1445 7.32422C66.8555 7.79297 68.4492 8.47266 69.9258 9.36328C71.4258 10.2305 72.7852 11.2852 74.0039 12.5273C75.2461 13.7461 76.3008 15.1055 77.168 16.6055C78.0586 18.1055 78.7383 19.7109 79.207 21.4219C79.6992 23.1328 79.9453 24.9141 79.9453 26.7656C79.9453 28.5 79.7227 30.1875 79.2773 31.8281C78.8555 33.4688 78.2344 35.0273 77.4141 36.5039C76.6172 37.9805 75.6328 39.3398 74.4609 40.582C73.2891 41.8242 71.9766 42.9023 70.5234 43.8164L76.1133 57H65.3906L60.9961 46.8398L49.7109 46.9102V57ZM135.984 32.0039C135.984 34.3945 135.668 36.7031 135.035 38.9297C134.426 41.1328 133.559 43.207 132.434 45.1523C131.309 47.0742 129.949 48.832 128.355 50.4258C126.762 52.0195 125.004 53.3906 123.082 54.5391C121.16 55.6641 119.086 56.5312 116.859 57.1406C114.633 57.7734 112.324 58.0898 109.934 58.0898C107.543 58.0898 105.234 57.7734 103.008 57.1406C100.805 56.5312 98.7305 55.6641 96.7852 54.5391C94.8633 53.3906 93.1055 52.0195 91.5117 50.4258C89.918 48.832 88.5469 47.0742 87.3984 45.1523C86.2734 43.207 85.3945 41.1328 84.7617 38.9297C84.1523 36.7031 83.8477 34.3945 83.8477 32.0039C83.8477 29.6133 84.1523 27.3047 84.7617 25.0781C85.3945 22.8516 86.2734 20.7773 87.3984 18.8555C88.5469 16.9336 89.918 15.1758 91.5117 13.582C93.1055 11.9883 94.8633 10.6289 96.7852 9.50391C98.7305 8.37891 100.805 7.51172 103.008 6.90234C105.234 6.26953 107.543 5.95312 109.934 5.95312C112.324 5.95312 114.633 6.26953 116.859 6.90234C119.086 7.51172 121.16 8.37891 123.082 9.50391C125.004 10.6289 126.762 11.9883 128.355 13.582C129.949 15.1758 131.309 16.9336 132.434 18.8555C133.559 20.7773 134.426 22.8516 135.035 25.0781C135.668 27.3047 135.984 29.6133 135.984 32.0039ZM125.965 32.0039C125.965 29.8008 125.543 27.7266 124.699 25.7812C123.855 23.8125 122.707 22.1133 121.254 20.6836C119.824 19.2305 118.125 18.082 116.156 17.2383C114.211 16.3945 112.137 15.9727 109.934 15.9727C107.707 15.9727 105.621 16.3945 103.676 17.2383C101.73 18.082 100.031 19.2305 98.5781 20.6836C97.125 22.1133 95.9766 23.8125 95.1328 25.7812C94.2891 27.7266 93.8672 29.8008 93.8672 32.0039C93.8672 34.207 94.2891 36.2812 95.1328 38.2266C95.9766 40.1484 97.125 41.8359 98.5781 43.2891C100.031 44.7422 101.73 45.8906 103.676 46.7344C105.621 47.5781 107.707 48 109.934 48C112.137 48 114.211 47.5781 116.156 46.7344C118.125 45.8906 119.824 44.7422 121.254 43.2891C122.707 41.8359 123.855 40.1484 124.699 38.2266C125.543 36.2812 125.965 34.207 125.965 32.0039ZM192.023 32.0039C192.023 34.3945 191.707 36.7031 191.074 38.9297C190.465 41.1328 189.598 43.207 188.473 45.1523C187.348 47.0742 185.988 48.832 184.395 50.4258C182.801 52.0195 181.043 53.3906 179.121 54.5391C177.199 55.6641 175.125 56.5312 172.898 57.1406C170.672 57.7734 168.363 58.0898 165.973 58.0898C163.582 58.0898 161.273 57.7734 159.047 57.1406C156.844 56.5312 154.77 55.6641 152.824 54.5391C150.902 53.3906 149.145 52.0195 147.551 50.4258C145.957 48.832 144.586 47.0742 143.438 45.1523C142.312 43.207 141.434 41.1328 140.801 38.9297C140.191 36.7031 139.887 34.3945 139.887 32.0039C139.887 29.6133 140.191 27.3047 140.801 25.0781C141.434 22.8516 142.312 20.7773 143.438 18.8555C144.586 16.9336 145.957 15.1758 147.551 13.582C149.145 11.9883 150.902 10.6289 152.824 9.50391C154.77 8.37891 156.844 7.51172 159.047 6.90234C161.273 6.26953 163.582 5.95312 165.973 5.95312C168.363 5.95312 170.672 6.26953 172.898 6.90234C175.125 7.51172 177.199 8.37891 179.121 9.50391C181.043 10.6289 182.801 11.9883 184.395 13.582C185.988 15.1758 187.348 16.9336 188.473 18.8555C189.598 20.7773 190.465 22.8516 191.074 25.0781C191.707 27.3047 192.023 29.6133 192.023 32.0039ZM182.004 32.0039C182.004 29.8008 181.582 27.7266 180.738 25.7812C179.895 23.8125 178.746 22.1133 177.293 20.6836C175.863 19.2305 174.164 18.082 172.195 17.2383C170.25 16.3945 168.176 15.9727 165.973 15.9727C163.746 15.9727 161.66 16.3945 159.715 17.2383C157.77 18.082 156.07 19.2305 154.617 20.6836C153.164 22.1133 152.016 23.8125 151.172 25.7812C150.328 27.7266 149.906 29.8008 149.906 32.0039C149.906 34.207 150.328 36.2812 151.172 38.2266C152.016 40.1484 153.164 41.8359 154.617 43.2891C156.07 44.7422 157.77 45.8906 159.715 46.7344C161.66 47.5781 163.746 48 165.973 48C168.176 48 170.25 47.5781 172.195 46.7344C174.164 45.8906 175.863 44.7422 177.293 43.2891C178.746 41.8359 179.895 40.1484 180.738 38.2266C181.582 36.2812 182.004 34.207 182.004 32.0039ZM248.695 57H238.641V21C238.641 20.2969 238.5 19.6406 238.219 19.0312C237.961 18.4219 237.598 17.8945 237.129 17.4492C236.684 16.9805 236.156 16.6172 235.547 16.3594C234.938 16.1016 234.281 15.9727 233.578 15.9727C232.875 15.9727 232.219 16.1016 231.609 16.3594C231 16.6172 230.461 16.9805 229.992 17.4492C229.547 17.8945 229.195 18.4219 228.938 19.0312C228.68 19.6406 228.551 20.2969 228.551 21V57H218.461V21C218.461 20.2969 218.332 19.6406 218.074 19.0312C217.816 18.4219 217.453 17.8945 216.984 17.4492C216.539 16.9805 216.012 16.6172 215.402 16.3594C214.793 16.1016 214.137 15.9727 213.434 15.9727C212.73 15.9727 212.074 16.1016 211.465 16.3594C210.855 16.6172 210.316 16.9805 209.848 17.4492C209.402 17.8945 209.051 18.4219 208.793 19.0312C208.535 19.6406 208.406 20.2969 208.406 21V57H198.316V21C198.316 18.9141 198.703 16.957 199.477 15.1289C200.273 13.2773 201.352 11.6719 202.711 10.3125C204.094 8.92969 205.699 7.85156 207.527 7.07812C209.379 6.28125 211.348 5.88281 213.434 5.88281C215.309 5.88281 217.113 6.22266 218.848 6.90234C220.582 7.55859 222.141 8.51953 223.523 9.78516C224.906 8.51953 226.453 7.55859 228.164 6.90234C229.898 6.22266 231.703 5.88281 233.578 5.88281C235.664 5.88281 237.621 6.28125 239.449 7.07812C241.301 7.85156 242.906 8.92969 244.266 10.3125C245.648 11.6719 246.727 13.2773 247.5 15.1289C248.297 16.957 248.695 18.9141 248.695 21V57ZM313.277 37.8398C313.277 40.6523 312.773 43.2773 311.766 45.7148C310.758 48.1289 309.387 50.2266 307.652 52.0078C305.918 53.7656 303.879 55.1602 301.535 56.1914C299.215 57.1992 296.719 57.7031 294.047 57.7031C291.398 57.7031 288.902 57.1992 286.559 56.1914C284.238 55.1602 282.199 53.7656 280.441 52.0078C278.707 50.2266 277.336 48.1289 276.328 45.7148C275.32 43.2773 274.816 40.6523 274.816 37.8398C274.816 34.9805 275.32 32.332 276.328 29.8945C277.336 27.457 278.707 25.3594 280.441 23.6016C282.199 21.8203 284.238 20.4258 286.559 19.418C288.902 18.4102 291.398 17.9062 294.047 17.9062C296.719 17.9062 299.215 18.3867 301.535 19.3477C303.879 20.2852 305.918 21.6328 307.652 23.3906C309.387 25.125 310.758 27.2227 311.766 29.6836C312.773 32.1211 313.277 34.8398 313.277 37.8398ZM303.609 37.8398C303.609 36.293 303.352 34.8984 302.836 33.6562C302.344 32.3906 301.664 31.3125 300.797 30.4219C299.93 29.5078 298.91 28.8164 297.738 28.3477C296.59 27.8555 295.359 27.6094 294.047 27.6094C292.734 27.6094 291.492 27.8555 290.32 28.3477C289.172 28.8164 288.164 29.5078 287.297 30.4219C286.453 31.3125 285.785 32.3906 285.293 33.6562C284.801 34.8984 284.555 36.293 284.555 37.8398C284.555 39.293 284.801 40.6406 285.293 41.8828C285.785 43.125 286.453 44.2031 287.297 45.1172C288.164 46.0312 289.172 46.7578 290.32 47.2969C291.492 47.8125 292.734 48.0703 294.047 48.0703C295.359 48.0703 296.59 47.8242 297.738 47.332C298.91 46.8398 299.93 46.1484 300.797 45.2578C301.664 44.3672 302.344 43.2891 302.836 42.0234C303.352 40.7578 303.609 39.3633 303.609 37.8398ZM330.363 57H320.766V28.9102H316.09V19.3477H320.766V17.5547C320.766 15.2344 321.199 13.0547 322.066 11.0156C322.957 8.97656 324.164 7.20703 325.688 5.70703C327.234 4.18359 329.027 2.98828 331.066 2.12109C333.105 1.23047 335.285 0.785156 337.605 0.785156H344.812V10.3477H337.605C336.574 10.3477 335.613 10.5352 334.723 10.9102C333.855 11.2617 333.094 11.7656 332.438 12.4219C331.805 13.0547 331.301 13.8164 330.926 14.707C330.551 15.5742 330.363 16.5234 330.363 17.5547V19.3477H342.141V28.9102H330.363V57ZM25.4531 118H15.3984V77.6758H0.246094V67.5859H40.5703V77.6758H25.4531V118ZM56.0039 118H45.9141V67.5859H56.0039V87.7656H76.1484V67.5859H86.2383V118H76.1484V97.8555H56.0039V118ZM145.02 93.0039C145.02 95.3945 144.703 97.7031 144.07 99.9297C143.461 102.133 142.594 104.207 141.469 106.152C140.344 108.074 138.984 109.832 137.391 111.426C135.797 113.02 134.039 114.391 132.117 115.539C130.195 116.664 128.121 117.531 125.895 118.141C123.668 118.773 121.359 119.09 118.969 119.09C116.578 119.09 114.27 118.773 112.043 118.141C109.84 117.531 107.766 116.664 105.82 115.539C103.898 114.391 102.141 113.02 100.547 111.426C98.9531 109.832 97.582 108.074 96.4336 106.152C95.3086 104.207 94.4297 102.133 93.7969 99.9297C93.1875 97.7031 92.8828 95.3945 92.8828 93.0039C92.8828 90.6133 93.1875 88.3047 93.7969 86.0781C94.4297 83.8516 95.3086 81.7773 96.4336 79.8555C97.582 77.9336 98.9531 76.1758 100.547 74.582C102.141 72.9883 103.898 71.6289 105.82 70.5039C107.766 69.3789 109.84 68.5117 112.043 67.9023C114.27 67.2695 116.578 66.9531 118.969 66.9531C121.359 66.9531 123.668 67.2695 125.895 67.9023C128.121 68.5117 130.195 69.3789 132.117 70.5039C134.039 71.6289 135.797 72.9883 137.391 74.582C138.984 76.1758 140.344 77.9336 141.469 79.8555C142.594 81.7773 143.461 83.8516 144.07 86.0781C144.703 88.3047 145.02 90.6133 145.02 93.0039ZM135 93.0039C135 90.8008 134.578 88.7266 133.734 86.7812C132.891 84.8125 131.742 83.1133 130.289 81.6836C128.859 80.2305 127.16 79.082 125.191 78.2383C123.246 77.3945 121.172 76.9727 118.969 76.9727C116.742 76.9727 114.656 77.3945 112.711 78.2383C110.766 79.082 109.066 80.2305 107.613 81.6836C106.16 83.1133 105.012 84.8125 104.168 86.7812C103.324 88.7266 102.902 90.8008 102.902 93.0039C102.902 95.207 103.324 97.2812 104.168 99.2266C105.012 101.148 106.16 102.836 107.613 104.289C109.066 105.742 110.766 106.891 112.711 107.734C114.656 108.578 116.742 109 118.969 109C121.172 109 123.246 108.578 125.191 107.734C127.16 106.891 128.859 105.742 130.289 104.289C131.742 102.836 132.891 101.148 133.734 99.2266C134.578 97.2812 135 95.207 135 93.0039ZM191.426 97.8555C191.426 100.645 190.898 103.27 189.844 105.73C188.789 108.168 187.348 110.301 185.52 112.129C183.691 113.934 181.547 115.363 179.086 116.418C176.648 117.473 174.035 118 171.246 118C168.457 118 165.832 117.473 163.371 116.418C160.934 115.363 158.801 113.934 156.973 112.129C155.168 110.301 153.738 108.168 152.684 105.73C151.629 103.27 151.102 100.645 151.102 97.8555V67.5859H161.156V97.8555C161.156 99.2383 161.414 100.539 161.93 101.758C162.469 102.977 163.195 104.043 164.109 104.957C165.023 105.871 166.09 106.598 167.309 107.137C168.551 107.652 169.863 107.91 171.246 107.91C172.629 107.91 173.93 107.652 175.148 107.137C176.391 106.598 177.469 105.871 178.383 104.957C179.297 104.043 180.012 102.977 180.527 101.758C181.066 100.539 181.336 99.2383 181.336 97.8555V67.5859H191.426V97.8555ZM240.293 112.902C237.949 114.895 235.336 116.43 232.453 117.508C229.57 118.562 226.57 119.09 223.453 119.09C221.062 119.09 218.754 118.773 216.527 118.141C214.324 117.531 212.262 116.664 210.34 115.539C208.418 114.391 206.66 113.031 205.066 111.461C203.473 109.867 202.113 108.109 200.988 106.188C199.863 104.242 198.984 102.156 198.352 99.9297C197.742 97.7031 197.438 95.3945 197.438 93.0039C197.438 90.6133 197.742 88.3164 198.352 86.1133C198.984 83.9102 199.863 81.8477 200.988 79.9258C202.113 77.9805 203.473 76.2227 205.066 74.6523C206.66 73.0586 208.418 71.6992 210.34 70.5742C212.262 69.4492 214.324 68.582 216.527 67.9727C218.754 67.3398 221.062 67.0234 223.453 67.0234C226.57 67.0234 229.57 67.5625 232.453 68.6406C235.336 69.6953 237.949 71.2188 240.293 73.2109L235.02 82C233.496 80.4531 231.738 79.2461 229.746 78.3789C227.754 77.4883 225.656 77.043 223.453 77.043C221.25 77.043 219.176 77.4648 217.23 78.3086C215.309 79.1523 213.621 80.3008 212.168 81.7539C210.715 83.1836 209.566 84.8711 208.723 86.8164C207.879 88.7383 207.457 90.8008 207.457 93.0039C207.457 95.2305 207.879 97.3164 208.723 99.2617C209.566 101.207 210.715 102.906 212.168 104.359C213.621 105.812 215.309 106.961 217.23 107.805C219.176 108.648 221.25 109.07 223.453 109.07C224.719 109.07 225.949 108.918 227.145 108.613C228.34 108.309 229.477 107.887 230.555 107.348V93.0039H240.293V112.902ZM258.152 118H248.062V67.5859H258.152V87.7656H278.297V67.5859H288.387V118H278.297V97.8555H258.152V118ZM318.938 118H308.883V77.6758H293.73V67.5859H334.055V77.6758H318.938V118ZM336.094 82.7031C336.094 80.6172 336.492 78.6602 337.289 76.832C338.086 75.0039 339.164 73.4102 340.523 72.0508C341.906 70.668 343.512 69.5781 345.34 68.7812C347.168 67.9844 349.125 67.5859 351.211 67.5859H374.344V77.6758H351.211C350.508 77.6758 349.852 77.8047 349.242 78.0625C348.633 78.3203 348.094 78.6836 347.625 79.1523C347.18 79.5977 346.828 80.125 346.57 80.7344C346.312 81.3438 346.184 82 346.184 82.7031C346.184 83.4062 346.312 84.0742 346.57 84.707C346.828 85.3164 347.18 85.8555 347.625 86.3242C348.094 86.7695 348.633 87.1211 349.242 87.3789C349.852 87.6367 350.508 87.7656 351.211 87.7656H361.301C363.387 87.7656 365.344 88.1641 367.172 88.9609C369.023 89.7344 370.629 90.8125 371.988 92.1953C373.371 93.5547 374.449 95.1602 375.223 97.0117C376.02 98.8398 376.418 100.797 376.418 102.883C376.418 104.969 376.02 106.926 375.223 108.754C374.449 110.582 373.371 112.188 371.988 113.57C370.629 114.93 369.023 116.008 367.172 116.805C365.344 117.602 363.387 118 361.301 118H338.906V107.91H361.301C362.004 107.91 362.66 107.781 363.27 107.523C363.879 107.266 364.406 106.914 364.852 106.469C365.32 106 365.684 105.461 365.941 104.852C366.199 104.242 366.328 103.586 366.328 102.883C366.328 102.18 366.199 101.523 365.941 100.914C365.684 100.305 365.32 99.7773 364.852 99.332C364.406 98.8633 363.879 98.5 363.27 98.2422C362.66 97.9844 362.004 97.8555 361.301 97.8555H351.211C349.125 97.8555 347.168 97.457 345.34 96.6602C343.512 95.8633 341.906 94.7852 340.523 93.4258C339.164 92.043 338.086 90.4375 337.289 88.6094C336.492 86.7578 336.094 84.7891 336.094 82.7031Z" fill="black"/>
</svg>
